<?xml version="1.0" encoding="utf-8"?>
<svg xmlns="http://www.w3.org/2000/svg">
  <symbol viewBox="0 0 24 24" id="chevron-down">
    <polyline points="6 10 12 16 18 10"/>
  </symbol>
  <symbol viewBox="0 0 24 24" id="code-alt">
    <path d="M7 8L3 12L7 16"/>
    <path d="M17 16L21 12L17 8"/>
    <path d="M9 19.5L14.5 5"/>
  </symbol>
  <symbol viewBox="0 0 24 24" id="controls-vertical-alt">
    <circle cx="18" cy="9" r="2" transform="rotate(90 18 9)"/>
    <path d="M18 4L18 7"/>
    <path d="M18 11L18 20"/>
    <circle cx="6" cy="9" r="2" transform="rotate(90 6 9)"/>
    <path d="M6 4L6 7"/>
    <path d="M6 11L6 20"/>
    <circle cx="12" cy="15" r="2" transform="rotate(90 12 15)"/>
    <path d="M12 4L12 13"/>
    <path d="M12 17L12 20"/>
  </symbol>
  <symbol viewBox="0 0 24 24" id="envelope">
    <rect width="20" height="14" x="2" y="5"/>
    <path stroke-linecap="round" d="M2 5l10 9 10-9"/>
    <path stroke-linecap="round" d="M2 19l6.825-7.8"/>
    <path stroke-linecap="round" d="M22 19l-6.844-7.822"/>
  </symbol>
  <symbol viewBox="0 0 24 24" id="info">
    <path d="M12,12 L12,15"/>
    <line x1="12" y1="9" x2="12" y2="9"/>
    <circle cx="12" cy="12" r="10"/>
  </symbol>
  <symbol viewBox="0 0 24 24" id="help">
    <path d="M12 14C12 12 13.576002 11.6652983 14.1186858 11.1239516 14.663127 10.5808518 15 9.82976635 15 9 15 7.34314575 13.6568542 6 12 6 11.1040834 6 10.2998929 6.39272604 9.75018919 7.01541737 9.49601109 7.30334431 9.29624369 7.64043912 9.16697781 8.01061095"/>
    <line x1="12" y1="17" x2="12" y2="17"/>
    <circle cx="12" cy="12" r="10"/>
  </symbol>
  <symbol viewBox="0 0 24 24" id="share-android">
    <path d="M16 8L8 11 16 8zM16 16L8 13 16 16z"/>
    <circle cx="6" cy="12" r="2"/>
    <circle cx="18" cy="7" r="2"/>
    <circle cx="18" cy="17" r="2"/>
  </symbol>
  <symbol viewBox="0 0 24 24" id="share">
    <path d="M12 14V6"/>
    <path d="M9 8L12 5L15 8"/>
    <path d="M5 13V18H19V13"/>
  </symbol>
  <symbol viewBox="0 0 24 24" id="send">
    <polygon points="21.368 12.001 3 21.609 3 14 11 12 3 9.794 3 2.394"/>
  </symbol>
  <symbol viewBox="0 0 24 24" id="sun">
    <circle cx="12" cy="12" r="4"/>
    <path d="M12 5L12 3M12 21L12 19M5 12L2 12 5 12zM22 12L19 12 22 12zM16.9497475 7.05025253L19.0710678 4.92893219 16.9497475 7.05025253zM4.92893219 19.0710678L7.05025253 16.9497475 4.92893219 19.0710678zM16.9497475 16.9497475L19.0710678 19.0710678 16.9497475 16.9497475zM4.92893219 4.92893219L7.05025253 7.05025253 4.92893219 4.92893219z"/>
  </symbol>
  <symbol viewBox="0 0 24 24" id="phone">
    <path stroke-linecap="round" d="M12.7407967,18.4035953 L15.8976569,15.246735 L21.114676,18.885324 L19.9443794,20.055614 C19.1648657,20.8351277 18.020623,21.1243165 16.9643502,20.8087683 C13.7351168,19.8440753 10.8342484,18.0754771 8.26174492,15.5029737 C5.6892452,12.930474 3.92064841,10.0296102 2.95595454,6.80038244 C2.64039085,5.74410652 2.92958124,4.59985601 3.70910009,3.82033716 L4.87939464,2.65004261 L8.51798358,7.86706169 L5.36112331,11.023922"/>
  </symbol>
  <symbol viewBox="0 0 24 24" id="bell">
    <path stroke-linejoin="round" d="M10.5,4.5 C12.1666667,4.5 13.8333333,4.5 15.5,4.5 C17.5,4.5 18.8333333,3.83333333 19.5,2.5 L19.5,18.5 C18.8333333,17.1666667 17.5,16.5 15.5,16.5 C13.8333333,16.5 12.1666667,16.5 10.5,16.5 L10.5,16.5 C7.1862915,16.5 4.5,13.8137085 4.5,10.5 L4.5,10.5 C4.5,7.1862915 7.1862915,4.5 10.5,4.5 Z" transform="rotate(90 12 10.5)"/>
    <path d="M11,21 C12.1045695,21 13,20.1045695 13,19 C13,17.8954305 12.1045695,17 11,17" transform="rotate(90 12 19)"/>
  </symbol>
  <symbol viewBox="0 0 24 24" id="copy">
    <rect width="12" height="14" x="8" y="7"/>
    <polyline points="16 3 4 3 4 17"/>
  </symbol>
  <symbol viewBox="0 0 24 24" id="hash">
    <path d="M11 3L5 21M19 3L13 21M3 16L19 16M5 8L21 8"/>
  </symbol>
  <symbol viewBox="0 0 24 24" id="moon">
    <path d="M10.423839,3 C10.1490474,3.80837289 10,4.67486099 10,5.57616098 C10,9.99443898 13.581722,13.576161 18,13.576161 C18.9013,13.576161 19.7677881,13.4271135 20.576161,13.152322 C19.5038921,16.3066875 16.516978,18.576161 13,18.576161 C8.581722,18.576161 5,14.994439 5,10.576161 C5,7.05918297 7.26947343,4.07226889 10.423839,3 Z"/>
  </symbol>
  <symbol viewBox="0 0 24 24" id="map">
    <polygon points="9 19 3 21 3 5 9 3 15 5 21 3 21 18.5 15 21"/>
    <path stroke-linecap="round" d="M15 5L15 21M9 3L9 19"/>
  </symbol>
  <symbol viewBox="0 0 24 24" id="download">
    <path d="M12,3 L12,16"/>
    <polyline points="7 12 12 17 17 12"/>
    <path d="M20,21 L4,21"/>
  </symbol>
  <symbol viewBox="0 0 24 24" id="danger">
    <path d="M12 10L12 13"/>
    <line x1="12" y1="16" x2="12" y2="16"/>
    <path d="M12.8619342,4.46528817 L21.1135176,18.4929799 C21.3935371,18.969013 21.2346366,19.5819147 20.7586035,19.8619342 C20.6049268,19.9523322 20.4298761,20 20.2515834,20 L3.74841664,20 C3.19613189,20 2.74841664,19.5522847 2.74841664,19 C2.74841664,18.8217072 2.7960844,18.6466565 2.88648243,18.4929799 L11.1380658,4.46528817 C11.4180853,3.98925504 12.030987,3.83035459 12.5070201,4.11037408 C12.6535738,4.19658212 12.7757262,4.3187345 12.8619342,4.46528817 Z"/>
  </symbol>
  <symbol viewBox="0 0 24 24" id="tag-alt">
    <circle cx="10" cy="12" r="1"/>
    <path d="M8 18l-6-6 6-6h12a2 2 0 0 1 2 2v8a2 2 0 0 1-2 2H8z"/>
  </symbol>
  <symbol viewBox="0 0 24 24" id="location">
    <path d="M12,21 C16,16.8 18,12.8 18,9 C18,5.6862915 15.3137085,3 12,3 C8.6862915,3 6,5.6862915 6,9 C6,12.8 8,16.8 12,21 Z"/>
    <circle cx="12" cy="9" r="1"/>
  </symbol>
  <symbol viewBox="0 0 24 24" id="sort-down">
    <path d="M11 9H17"/>
    <path d="M11 5H19"/>
    <path d="M11 13H15"/>
    <path d="M10 17L7 20L4 17"/>
    <path d="M7 5V19"/>
  </symbol>
  <symbol viewBox="0 0 24 24" id="sort-up">
    <path d="M11 16H17"/>
    <path d="M11 20H19"/>
    <path d="M11 12H15"/>
    <path d="M4 8L7 5L10 8"/>
    <path d="M7 20L7 6"/>
  </symbol>
</svg>
