<svg xmlns="http://www.w3.org/2000/svg">
  <defs>
    <symbol viewBox="0 0 50 50" id="icon-github">
      <path d="M25 2C12.311 2 2 12.311 2 25s10.311 23 23 23 23-10.311 23-23S37.689 2 25 2zm0 2c11.607 0 21 9.393 21 21 0 .071-.005.142-.006.213a39.758 39.758 0 00-2.318-.149 59.326 59.326 0 00-4.903.061c.07-.49.12-.988.122-1.498.096-1.873-.532-3.625-1.555-5.172.247-.854.537-1.94.61-3.172.082-1.404-.04-2.961-1.167-4.013l-.289-.27H36.1c-2.683 0-4.52 1.123-5.643 2.014A15.026 15.026 0 0025 12a15.82 15.82 0 00-5.553 1.018C18.325 12.127 16.487 11 13.801 11h-.393l-.289.268c-1.098 1.02-1.2 2.534-1.13 3.931.06 1.233.333 2.353.575 3.248-1.04 1.578-1.664 3.375-1.664 5.153 0 .511.048 1.01.118 1.502-1.806-.084-3.416-.1-4.694-.055-.94.033-1.679.089-2.318.148 0-.065-.006-.13-.006-.195C4 13.393 13.393 4 25 4zm-10.604 9.13c2.018.192 3.536 1.093 4.239 1.718l.469.414.578-.237C21.263 14.375 23.027 14 25 14c1.973 0 3.737.376 5.2 1.016l.585.257.479-.425c.703-.625 2.223-1.526 4.242-1.717.268.445.501 1.078.445 2.035-.067 1.146-.374 2.394-.605 3.135l-.15.482.298.408c.99 1.35 1.494 2.81 1.408 4.354l-.002.027v.028c0 2.495-.898 4.492-2.812 5.972C32.174 31.052 29.153 32 24.9 32c-4.252 0-7.275-.948-9.19-2.428-1.913-1.48-2.81-3.477-2.81-5.972 0-1.465.53-3.076 1.506-4.409l.293-.398-.14-.475c-.232-.788-.516-2.064-.573-3.216-.047-.96.18-1.565.41-1.971zM8.885 26.022c.706.01 1.516.048 2.328.088.077.312.166.619.273.918-3.307.07-5.781.403-7.306.688-.065-.5-.116-1.005-.145-1.516a44.845 44.845 0 014.85-.178zm32.23.016c2.133-.027 3.72.071 4.848.178-.029.503-.08 1-.143 1.494-1.58-.29-4.12-.622-7.513-.676.105-.293.193-.595.27-.9a64.2 64.2 0 012.538-.096zM11.912 28.02a9.029 9.029 0 002.576 3.134c1.54 1.192 3.544 2.024 5.989 2.469-.32.329-.611.69-.87 1.07l-.06-.052c.005-.007-.497.245-1.248.312S16.622 35 15.8 35c-1.225 0-1.765-.579-2.627-1.633a7.098 7.098 0 00-1.625-1.56c-.579-.406-1.073-.691-1.684-.793L9.783 31H9.7c-.466 0-.918.034-1.34.516-.21.24-.356.687-.261 1.064.094.378.333.61.547.752 1.366.911 1.608 2.715 2.464 4.318.8 1.594 2.527 2.35 4.291 2.35H18v4.803c-7.032-2.482-12.335-8.598-13.668-16.1 1.53-.288 4.095-.635 7.58-.683zm25.97.007c3.564.03 6.199.377 7.788.67C44.339 36.202 39.034 42.32 32 44.803V39.6c0-1.585-.52-3.332-1.426-4.79a7.52 7.52 0 00-.959-1.236c2.315-.457 4.217-1.275 5.698-2.42a9.004 9.004 0 002.57-3.127zM23.7 34.1H26.5c.813 0 1.68.647 2.375 1.765C29.57 36.983 30 38.485 30 39.6v5.798a21.078 21.078 0 01-10 0V39.6c0-1.091.468-2.589 1.209-3.711.741-1.123 1.677-1.79 2.49-1.79zM12.31 35.28C13.174 36.18 14.223 37 15.8 37c.779 0 1.751.028 2.676-.055l.01-.002c-.122.35-.213.703-.29 1.057H15.4c-1.233 0-2.104-.446-2.505-1.248l-.008-.014-.006-.011c-.165-.306-.38-.916-.572-1.446z"/>
    </symbol>
    <symbol viewBox="0 0 50 50" id="icon-instagram-new">
      <path d="M16 3C8.832 3 3 8.832 3 16v18c0 7.168 5.832 13 13 13h18c7.168 0 13-5.832 13-13V16c0-7.168-5.832-13-13-13H16zm0 2h18c6.086 0 11 4.914 11 11v18c0 6.086-4.914 11-11 11H16C9.914 45 5 40.086 5 34V16C5 9.914 9.914 5 16 5zm21 6a2 2 0 00-2 2 2 2 0 002 2 2 2 0 002-2 2 2 0 00-2-2zm-12 3c-6.063 0-11 4.937-11 11s4.937 11 11 11 11-4.937 11-11-4.937-11-11-11zm0 2c4.982 0 9 4.018 9 9s-4.018 9-9 9-9-4.018-9-9 4.018-9 9-9z"/>
    </symbol>
    <symbol viewBox="0 0 50 50" id="icon-linkedin">
      <path d="M9 4C6.25 4 4 6.25 4 9v32c0 2.75 2.25 5 5 5h32c2.75 0 5-2.25 5-5V9c0-2.75-2.25-5-5-5H9zm0 2h32c1.668 0 3 1.332 3 3v32c0 1.668-1.332 3-3 3H9c-1.668 0-3-1.332-3-3V9c0-1.668 1.332-3 3-3zm5 5.012c-1.095 0-2.08.327-2.81.941a3.297 3.297 0 00-1.178 2.514c0 1.867 1.62 3.323 3.68 3.467a.988.988 0 00.003.002.988.988 0 00.305.052c2.273 0 3.988-1.592 3.988-3.521a.988.988 0 00-.002-.053c-.101-1.9-1.796-3.402-3.986-3.402zm0 1.976c1.392 0 1.942.622 2.002 1.504-.012.856-.542 1.52-2.002 1.52-1.385 0-2.012-.71-2.012-1.545 0-.418.153-.733.473-1.002.32-.27.834-.477 1.539-.477zM11 19a1 1 0 00-1 1v19a1 1 0 001 1h6a1 1 0 001-1V20a1 1 0 00-1-1h-6zm9 0a1 1 0 00-1 1v19a1 1 0 001 1h6a1 1 0 001-1V29c0-.83.226-1.655.625-2.195.399-.54.901-.865 1.857-.848.986.017 1.508.355 1.903.885S32 28.167 32 29v10a1 1 0 001 1h6a1 1 0 001-1V28.262c0-2.962-.877-5.308-2.38-6.895C36.114 19.78 34.023 19 31.812 19A8.729 8.729 0 0027 20.424V20a1 1 0 00-1-1h-6zm-8 2h4v17h-4V21zm9 0h4v1.56a1 1 0 001.799.602S28.369 21 31.813 21c1.753 0 3.256.583 4.355 1.742 1.099 1.16 1.832 2.946 1.832 5.52V38h-4v-9c0-1.167-.28-2.373-1.01-3.354-.73-.98-1.958-1.663-3.472-1.689-1.522-.027-2.77.67-3.502 1.662C25.284 26.611 25 27.83 25 29v9h-4V21z"/>
    </symbol>
    <symbol viewBox="0 0 50 50" id="icon-reddit">
      <path d="M29 3c-.938 0-1.836.383-2.5 1-.664.617-1.137 1.434-1.5 2.406-.645 1.735-.914 3.989-.969 6.625-4.797.149-9.21 1.39-12.75 3.438a5.512 5.512 0 00-7.688.125 5.505 5.505 0 000 7.812l.25.25C3.314 26.036 3 27.488 3 29c0 4.527 2.566 8.586 6.563 11.438C13.559 43.288 19.008 45 25 45c5.992 0 11.441-1.71 15.438-4.563C44.434 37.587 47 33.528 47 29c0-1.512-.313-2.965-.844-4.344l.25-.25a5.505 5.505 0 000-7.812 5.512 5.512 0 00-7.687-.125C35.195 14.434 30.8 13.19 26.03 13.03c.063-2.484.332-4.562.844-5.937.29-.778.652-1.336 1-1.657C28.223 5.117 28.539 5 29 5c.46 0 .684.125 1.031.406.348.282.754.742 1.282 1.282.94.964 2.382 2.027 4.78 2.25C36.54 11.238 38.575 13 41 13c2.75 0 5-2.25 5-5s-2.25-5-5-5c-2.395 0-4.426 1.71-4.906 3.969-1.782-.172-2.567-.86-3.344-1.657-.45-.46-.863-1-1.438-1.468A3.671 3.671 0 0029 3zm12 2c1.668 0 3 1.332 3 3s-1.332 3-3 3-3-1.332-3-3 1.332-3 3-3zM25 15c5.61 0 10.676 1.613 14.281 4.188C42.887 21.761 45 25.227 45 29c0 3.773-2.113 7.238-5.719 9.813C35.676 41.386 30.61 43 25 43c-5.61 0-10.676-1.613-14.281-4.188C7.113 36.239 5 32.773 5 29c0-3.773 2.113-7.238 5.719-9.813C14.324 16.614 19.39 15 25 15zM7.5 16.938c.703 0 1.414.21 2.031.656-2.004 1.437-3.644 3.176-4.781 5.125C3.582 21.297 3.66 19.339 5 18c.715-.715 1.61-1.063 2.5-1.063zm35 0c.89 0 1.785.347 2.5 1.062 1.34 1.34 1.418 3.297.25 4.719-1.137-1.95-2.777-3.688-4.781-5.125a3.457 3.457 0 012.031-.657zM17 22c-2.2 0-4 1.8-4 4s1.8 4 4 4 4-1.8 4-4-1.8-4-4-4zm16 0c-2.2 0-4 1.8-4 4s1.8 4 4 4 4-1.8 4-4-1.8-4-4-4zm-16 2c1.117 0 2 .883 2 2s-.883 2-2 2-2-.883-2-2 .883-2 2-2zm16 0c1.117 0 2 .883 2 2s-.883 2-2 2-2-.883-2-2 .883-2 2-2zm1.156 9.844a1.006 1.006 0 00-.156.031c-.316.063-.582.27-.719.563 0 0-.523.726-1.843 1.562-1.32.836-3.38 1.688-6.438 1.688-3.059 0-5.117-.852-6.438-1.688-1.32-.836-1.843-1.563-1.843-1.563A.998.998 0 0015.656 34a1 1 0 00-.562 1.563s.77 1.109 2.375 2.124c1.605 1.016 4.09 2 7.531 2s5.926-.984 7.531-2c1.606-1.015 2.375-2.124 2.375-2.124a1 1 0 00-.75-1.72z"/>
    </symbol>
    <symbol viewBox="0 0 50 50" id="icon-stackoverflow">
      <path fill-rule="evenodd" d="M40.344 1.96l-2.485.458 3.328 18.207 1.985-.3zM29.062 6.665l-1.96 1.414L37.3 23.035l1.746-1.238zm-8.71 8.844l-1.239 2.195L34.5 27l1.164-1.996zm-4.188 9.664l-.535 2.23 17.73 4.493.641-1.973zM9 29v18.984L38.902 48v-.016C38.934 47.984 39 29 39 29h-2v17H11V29zm6.172 4.375l-.27 1.965L33 37l.203-1.965zM15 40v2l18-.07V40z"/>
    </symbol>
    <symbol viewBox="0 0 50 50" id="icon-twitter">
      <path d="M34.219 5.469c-5.98 0-10.844 4.863-10.844 10.843 0 .36.09.711.125 1.063-7.395-.707-13.934-4.27-18.375-9.719a1.005 1.005 0 00-.863-.379.995.995 0 00-.793.504A10.758 10.758 0 002 13.22c0 2.402.86 4.601 2.188 6.406-.258-.113-.54-.176-.782-.313a.997.997 0 00-1.469.875v.125c0 3.684 1.907 6.883 4.72 8.844-.032-.004-.063.008-.095 0a1 1 0 00-1.125 1.282c1.118 3.472 3.97 6.125 7.5 7.093-2.812 1.672-6.074 2.657-9.593 2.657-.762 0-1.492-.04-2.219-.126a.998.998 0 00-1.074.657.997.997 0 00.418 1.187A28.84 28.84 0 0016.094 46.5c9.332 0 16.652-3.898 21.562-9.469 4.91-5.57 7.469-12.804 7.469-19.562 0-.285-.023-.563-.031-.844 1.832-1.402 3.468-3.047 4.75-4.969a.998.998 0 00-.067-1.21.996.996 0 00-1.183-.258c-.516.23-1.117.253-1.657.437.711-.95 1.32-1.973 1.688-3.125a1.005 1.005 0 00-.336-1.086 1.002 1.002 0 00-1.133-.07C45.45 7.355 43.56 8.066 41.563 8.5c-1.938-1.813-4.489-3.031-7.344-3.031zm0 2c2.55 0 4.855 1.09 6.468 2.812.243.25.598.356.938.281a20.581 20.581 0 003.75-1.124 8.903 8.903 0 01-2.563 2.343.998.998 0 00-.503 1.23.998.998 0 001.16.645c1-.12 1.89-.527 2.843-.781a18.992 18.992 0 01-2.812 2.5.997.997 0 00-.406.875c.015.406.031.809.031 1.219 0 6.25-2.398 13.035-6.969 18.218-4.57 5.184-11.281 8.813-20.062 8.813-3.989 0-7.754-.883-11.157-2.438 4.22-.324 8.11-1.816 11.25-4.28A.999.999 0 0015.594 36c-3.296-.06-6.058-1.978-7.53-4.688h.156c.988 0 1.965-.125 2.875-.375.437-.13.738-.536.722-.993a1.004 1.004 0 00-.785-.945c-3.558-.719-6.226-3.617-6.844-7.219 1.008.348 2.04.621 3.157.657a1 1 0 00.593-1.844A8.855 8.855 0 014 13.219c0-1.14.297-2.188.688-3.188 5 5.489 12 9.133 19.906 9.531.312.016.617-.113.82-.351a1 1 0 00.211-.867 8.925 8.925 0 01-.25-2.032 8.826 8.826 0 018.844-8.843z"/>
    </symbol>
  </defs>
</svg>